<svg xmlns="http://www.w3.org/2000/svg" width="1920" height="1920" viewBox="0 0 1920 1920" version="1.1"><path d="M 1333.287 509.740 C 1336.469 509.939, 1341.419 509.937, 1344.287 509.736 C 1347.154 509.535, 1344.550 509.372, 1338.500 509.374 C 1332.450 509.376, 1330.104 509.541, 1333.287 509.740 M 1365.311 509.748 C 1373.457 509.916, 1386.507 509.916, 1394.311 509.747 C 1402.115 509.579, 1395.450 509.441, 1379.500 509.441 C 1363.550 509.442, 1357.165 509.580, 1365.311 509.748 M 1409.996 522.797 L 1410.492 536.500 1410.777 523.581 C 1410.934 516.476, 1410.711 510.309, 1410.281 509.878 C 1409.852 509.446, 1409.723 515.260, 1409.996 522.797 M 1289.392 556 C 1289.392 563.425, 1289.549 566.462, 1289.742 562.750 C 1289.934 559.038, 1289.934 552.962, 1289.742 549.250 C 1289.549 545.538, 1289.392 548.575, 1289.392 556 M 1289.434 600.500 C 1289.433 614.250, 1289.574 620.014, 1289.747 613.308 C 1289.919 606.603, 1289.920 595.353, 1289.748 588.308 C 1289.576 581.264, 1289.434 586.750, 1289.434 600.500 M 1269.750 629.740 C 1273.188 629.936, 1278.813 629.936, 1282.250 629.740 C 1285.688 629.545, 1282.875 629.385, 1276 629.385 C 1269.125 629.385, 1266.313 629.545, 1269.750 629.740 M 1410.441 659.500 C 1410.442 675.450, 1410.580 681.835, 1410.748 673.689 C 1410.916 665.543, 1410.916 652.493, 1410.747 644.689 C 1410.579 636.885, 1410.441 643.550, 1410.441 659.500 M 1237.750 689.740 C 1241.188 689.936, 1246.813 689.936, 1250.250 689.740 C 1253.688 689.545, 1250.875 689.385, 1244 689.385 C 1237.125 689.385, 1234.313 689.545, 1237.750 689.740 M 1418.750 689.740 C 1422.188 689.936, 1427.813 689.936, 1431.250 689.740 C 1434.688 689.545, 1431.875 689.385, 1425 689.385 C 1418.125 689.385, 1415.313 689.545, 1418.750 689.740 M 1229.434 720.500 C 1229.433 734.250, 1229.574 740.014, 1229.747 733.308 C 1229.919 726.603, 1229.920 715.353, 1229.748 708.308 C 1229.576 701.264, 1229.434 706.750, 1229.434 720.500 M 1206.789 749.741 C 1210.248 749.937, 1215.648 749.936, 1218.789 749.738 C 1221.930 749.540, 1219.100 749.380, 1212.500 749.382 C 1205.900 749.384, 1203.330 749.546, 1206.789 749.741 M 1169.392 795 C 1169.392 802.425, 1169.549 805.462, 1169.742 801.750 C 1169.934 798.038, 1169.934 791.962, 1169.742 788.250 C 1169.549 784.538, 1169.392 787.575, 1169.392 795 M 1149.750 809.740 C 1153.188 809.936, 1158.813 809.936, 1162.250 809.740 C 1165.688 809.545, 1162.875 809.385, 1156 809.385 C 1149.125 809.385, 1146.313 809.545, 1149.750 809.740 M 1445.750 809.740 C 1449.188 809.936, 1454.813 809.936, 1458.250 809.740 C 1461.688 809.545, 1458.875 809.385, 1452 809.385 C 1445.125 809.385, 1442.313 809.545, 1445.750 809.740 M 1470.438 842.500 C 1470.437 857.350, 1470.576 863.564, 1470.747 856.310 C 1470.918 849.055, 1470.918 836.905, 1470.748 829.310 C 1470.578 821.714, 1470.438 827.650, 1470.438 842.500 M 1109.385 853 C 1109.385 859.875, 1109.545 862.688, 1109.740 859.250 C 1109.936 855.813, 1109.936 850.188, 1109.740 846.750 C 1109.545 843.313, 1109.385 846.125, 1109.385 853 M 1067.750 869.747 C 1074.487 869.920, 1085.513 869.920, 1092.250 869.747 C 1098.987 869.574, 1093.475 869.432, 1080 869.432 C 1066.525 869.432, 1061.013 869.574, 1067.750 869.747 M 1470.442 900 C 1470.442 916.225, 1470.580 922.862, 1470.748 914.750 C 1470.916 906.638, 1470.916 893.362, 1470.748 885.250 C 1470.580 877.138, 1470.442 883.775, 1470.442 900 M 1049.374 885.500 C 1049.376 891.550, 1049.541 893.896, 1049.740 890.713 C 1049.939 887.531, 1049.937 882.581, 1049.736 879.713 C 1049.535 876.846, 1049.372 879.450, 1049.374 885.500 M 510.389 915.500 C 510.390 922.650, 510.550 925.444, 510.742 921.708 C 510.935 917.973, 510.934 912.123, 510.739 908.708 C 510.545 905.294, 510.387 908.350, 510.389 915.500 M 989.389 915.500 C 989.390 922.650, 989.550 925.444, 989.742 921.708 C 989.935 917.973, 989.934 912.123, 989.739 908.708 C 989.545 905.294, 989.387 908.350, 989.389 915.500 M 524.812 929.748 C 533.233 929.916, 546.733 929.915, 554.812 929.748 C 562.890 929.580, 556 929.443, 539.500 929.443 C 523 929.444, 516.390 929.581, 524.812 929.748 M 581.789 929.741 C 585.248 929.937, 590.648 929.936, 593.789 929.738 C 596.930 929.540, 594.100 929.380, 587.500 929.382 C 580.900 929.384, 578.330 929.546, 581.789 929.741 M 948.250 929.747 C 955.263 929.919, 966.737 929.919, 973.750 929.747 C 980.763 929.575, 975.025 929.435, 961 929.435 C 946.975 929.435, 941.237 929.575, 948.250 929.747 M 929.395 946.500 C 929.396 954.200, 929.553 957.218, 929.743 953.206 C 929.934 949.195, 929.932 942.895, 929.741 939.206 C 929.549 935.518, 929.393 938.800, 929.395 946.500 M 1470.374 946.500 C 1470.376 952.550, 1470.541 954.896, 1470.740 951.713 C 1470.939 948.531, 1470.937 943.581, 1470.736 940.713 C 1470.535 937.846, 1470.372 940.450, 1470.374 946.500 M 690.385 973 C 690.385 979.875, 690.545 982.688, 690.740 979.250 C 690.936 975.813, 690.936 970.188, 690.740 966.750 C 690.545 963.313, 690.385 966.125, 690.385 973 M 869.374 974.500 C 869.376 980.550, 869.541 982.896, 869.740 979.713 C 869.939 976.531, 869.937 971.581, 869.736 968.713 C 869.535 965.846, 869.372 968.450, 869.374 974.500 M 709.250 989.748 C 716.813 989.917, 729.188 989.917, 736.750 989.748 C 744.313 989.578, 738.125 989.439, 723 989.439 C 707.875 989.439, 701.688 989.578, 709.250 989.748 M 765.250 989.748 C 773.362 989.916, 786.638 989.916, 794.750 989.748 C 802.862 989.580, 796.225 989.442, 780 989.442 C 763.775 989.442, 757.138 989.580, 765.250 989.748 M 824.310 989.748 C 831.905 989.918, 844.055 989.918, 851.310 989.747 C 858.564 989.576, 852.350 989.437, 837.500 989.438 C 822.650 989.438, 816.714 989.578, 824.310 989.748 M 1410.392 1036 C 1410.392 1043.425, 1410.549 1046.463, 1410.742 1042.750 C 1410.934 1039.037, 1410.934 1032.963, 1410.742 1029.250 C 1410.549 1025.537, 1410.392 1028.575, 1410.392 1036 M 429.750 1050.740 C 433.188 1050.936, 438.813 1050.936, 442.250 1050.740 C 445.688 1050.545, 442.875 1050.385, 436 1050.385 C 429.125 1050.385, 426.313 1050.545, 429.750 1050.740 M 1410.374 1061.500 C 1410.376 1067.550, 1410.541 1069.896, 1410.740 1066.713 C 1410.939 1063.531, 1410.937 1058.581, 1410.736 1055.713 C 1410.535 1052.846, 1410.372 1055.450, 1410.374 1061.500 M 449.436 1078.500 C 449.436 1092.800, 449.577 1098.511, 449.748 1091.191 C 449.919 1083.871, 449.918 1072.171, 449.747 1065.191 C 449.575 1058.211, 449.435 1064.200, 449.436 1078.500 M 461.287 1110.740 C 464.469 1110.939, 469.419 1110.937, 472.287 1110.736 C 475.154 1110.535, 472.550 1110.372, 466.500 1110.374 C 460.450 1110.376, 458.104 1110.541, 461.287 1110.740 M 1357.750 1110.740 C 1361.188 1110.936, 1366.813 1110.936, 1370.250 1110.740 C 1373.688 1110.545, 1370.875 1110.385, 1364 1110.385 C 1357.125 1110.385, 1354.313 1110.545, 1357.750 1110.740 M 1350.389 1124.500 C 1350.390 1131.650, 1350.550 1134.444, 1350.742 1130.708 C 1350.935 1126.973, 1350.934 1121.123, 1350.739 1117.708 C 1350.545 1114.294, 1350.387 1117.350, 1350.389 1124.500 M 1335.250 1139.776 L 1320 1140.052 1320 1155.026 L 1320 1170 1305 1170 L 1290 1170 1290 1185 L 1290 1200 1275 1200 L 1260 1200 1260 1215 L 1260 1230 1230 1230 L 1200 1230 1200 1245 L 1200 1260 1170 1260 L 1140 1260 1140 1275 L 1140 1290 1110 1290 L 1080 1290 1080 1305 L 1080 1320 885 1320 L 690 1320 690 1305 L 690 1290 660 1290 L 630 1290 630 1275.028 L 630 1260.057 599.750 1259.778 L 569.500 1259.500 569.799 1274.750 L 570.098 1290 585.049 1290 L 600 1290 600 1305 L 600 1320 615 1320 L 630 1320 630 1335 L 630 1350 675 1350 L 720 1350 720 1365 L 720 1380 795 1380 L 870 1380 870 1395 L 870 1410 1140 1410 L 1410 1410 1410 1395 L 1410 1380 1485 1380 L 1560 1380 1560 1365 L 1560 1350 1605 1350 L 1650 1350 1650 1335 L 1650 1320 1665 1320 L 1680 1320 1680 1305 L 1680 1290 1695 1290 L 1710 1290 1710 1275 L 1710 1260 1695 1260 L 1680 1260 1680 1245 L 1680 1230 1665 1230 L 1650 1230 1650 1215 L 1650 1200 1605 1200 L 1560 1200 1560 1185 L 1560 1170 1485 1170 L 1410 1170 1410 1155.029 L 1410 1140.057 1380.250 1139.779 C 1363.888 1139.625, 1343.638 1139.624, 1335.250 1139.776 M 549.750 1230.740 C 553.188 1230.936, 558.813 1230.936, 562.250 1230.740 C 565.688 1230.545, 562.875 1230.385, 556 1230.385 C 549.125 1230.385, 546.313 1230.545, 549.750 1230.740 M 569.389 1244.500 C 569.390 1251.650, 569.550 1254.444, 569.742 1250.708 C 569.935 1246.973, 569.934 1241.123, 569.739 1237.708 C 569.545 1234.294, 569.387 1237.350, 569.389 1244.500" stroke="none" fill="#5ca9c3" fill-rule="evenodd"/><path d="M 1350 735 L 1350 780 1365 780 L 1380 780 1380 840 L 1380 900 1365 900 L 1350 900 1350 945 L 1350 990 1335 990 L 1320 990 1320 1005 L 1320 1020 1305 1020 L 1290 1020 1290 1035 L 1290 1050 1275 1050 L 1260 1050 1260 1065 L 1260 1080 1245 1080 L 1230 1080 1230 1095 L 1230 1110 1200 1110 L 1170 1110 1170 1125 L 1170 1140 1140 1140 L 1110 1140 1110 1155 L 1110 1170 1065 1170 L 1020 1170 1020 1185 L 1020 1200 870 1200 L 720 1200 720 1185 L 720 1170 690 1170 L 660 1170 660 1155 L 660 1140 630 1140 L 600 1140 600 1125 L 600 1110 570 1110 L 540 1110 540 1065 L 540 1020 510 1020 L 480 1020 480 1005 L 480 990 465 990 L 450 990 450 1020 L 450 1050 465 1050 L 480 1050 480 1080 L 480 1110 495 1110 L 510 1110 510 1140 L 510 1170 525 1170 L 540 1170 540 1185 L 540 1200 555 1200 L 570 1200 570 1215 L 570 1230 600 1230 L 630 1230 630 1245 L 630 1260 660 1260 L 690 1260 690 1275 L 690 1290 885 1290 L 1080 1290 1080 1275 L 1080 1260 1110 1260 L 1140 1260 1140 1245 L 1140 1230 1170 1230 L 1200 1230 1200 1215 L 1200 1200 1230 1200 L 1260 1200 1260 1185 L 1260 1170 1275 1170 L 1290 1170 1290 1155 L 1290 1140 1305 1140 L 1320 1140 1320 1125 L 1320 1110 1335 1110 L 1350 1110 1350 1095 L 1350 1080 1365 1080 L 1380 1080 1380 1050 L 1380 1020 1395 1020 L 1410 1020 1410 990 L 1410 960 1425 960 L 1440 960 1440 885 L 1440 810 1425 810 L 1410 810 1410 750 L 1410 690 1380 690 L 1350 690 1350 735" stroke="none" fill="#fa842d" fill-rule="evenodd"/><path d="M 1320 705 L 1320 720 1305 720 L 1290 720 1290 735 L 1290 750 1275 750 L 1260 750 1260 780 L 1260 810 1245 810 L 1230 810 1230 825 L 1230 840 1215 840 L 1200 840 1200 855 L 1200 870 1185 870 L 1170 870 1170 885 L 1170 900 1155 900 L 1140 900 1140 915 L 1140 930 1110 930 L 1080 930 1080 945 L 1080 960 1050 960 L 1020 960 1020 975 L 1020 990 990 990 L 960 990 960 1005 L 960 1020 945 1020 L 930 1020 930 1035 L 930 1050 780 1050 L 630 1050 630 1035 L 630 1020 615 1020 L 600 1020 600 1005 L 600 990 555 990 L 510 990 510 975 L 510 960 480 960 L 450 960 450 975 L 450 990 465 990 L 480 990 480 1005 L 480 1020 510 1020 L 540 1020 540 1065 L 540 1110 570 1110 L 600 1110 600 1125 L 600 1140 630 1140 L 660 1140 660 1155 L 660 1170 690 1170 L 720 1170 720 1185 L 720 1200 870 1200 L 1020 1200 1020 1185 L 1020 1170 1065 1170 L 1110 1170 1110 1155 L 1110 1140 1140 1140 L 1170 1140 1170 1125 L 1170 1110 1200 1110 L 1230 1110 1230 1095 L 1230 1080 1245 1080 L 1260 1080 1260 1065 L 1260 1050 1275 1050 L 1290 1050 1290 1035 L 1290 1020 1305 1020 L 1320 1020 1320 1005 L 1320 990 1335 990 L 1350 990 1350 945 L 1350 900 1365 900 L 1380 900 1380 840 L 1380 780 1365 780 L 1350 780 1350 735 L 1350 690 1335 690 L 1320 690 1320 705" stroke="none" fill="#feda3b" fill-rule="evenodd"/><path d="M 1260 720.024 L 1260 750 1245 750 L 1230 750 1230 765 L 1230 780 1215 780 L 1200 780 1200 795 L 1200 810 1187.250 810.111 C 1180.237 810.172, 1173.487 810.139, 1172.250 810.039 C 1170.008 809.858, 1170 809.911, 1170 824.928 L 1170 840 1154.950 840 L 1139.900 840 1140.200 855.001 L 1140.500 870.003 1125.250 870.001 L 1110 870 1110 885 L 1110 900 1079.930 900 L 1049.859 900 1050.180 915.250 L 1050.500 930.500 1020.250 930.209 L 990 929.917 990 944.944 L 990 959.970 960.250 960.235 L 930.500 960.500 930.386 975.307 L 930.273 990.113 900.136 990.030 L 870 989.946 870 1004.958 L 870 1019.969 809.750 1020.235 C 776.612 1020.381, 735.888 1020.381, 719.250 1020.235 L 689 1019.971 689 1004.986 L 689 990.001 644.500 990.032 L 600 990.063 600 1005.032 L 600 1020 614.973 1020 L 629.947 1020 630.223 1034.750 L 630.500 1049.500 780 1049.500 L 929.500 1049.500 929.777 1034.750 L 930.053 1020 945.027 1020 L 960 1020 960 1005 L 960 990 974.750 989.932 C 982.862 989.894, 996.362 989.922, 1004.750 989.995 L 1020 990.126 1020 975.063 L 1020 960 1050 960 L 1080 960 1080 945 L 1080 930 1110 930 L 1140 930 1140 915 L 1140 900 1155.049 900 L 1170.098 900 1169.799 884.750 L 1169.500 869.500 1184.750 869.820 L 1200 870.141 1200 855.070 L 1200 840 1215 840 L 1230 840 1230 825 L 1230 810 1245 810 L 1260 810 1260 780 L 1260 750 1275 750 L 1290 750 1290 735 L 1290 720 1305 720 L 1320 720 1320 705.024 L 1320 690.048 1290 690.048 L 1260 690.048 1260 720.024 M 450.672 930.724 C 450.408 931.151, 450.133 937.913, 450.059 945.750 L 449.925 960 479.411 960 L 508.897 960 509.199 945.414 C 509.364 937.391, 509.338 930.666, 509.140 930.470 C 508.396 929.732, 451.130 929.981, 450.672 930.724 M 510 975.010 L 510 990.020 554.750 989.760 L 599.500 989.500 599.777 974.782 L 600.053 960.063 555.027 960.032 L 510 960.001 510 975.010" stroke="none" fill="#fff59c" fill-rule="evenodd"/><path d="M 1380 570 L 1380 600 1365 600 L 1350 600 1350 630 L 1350 660 1335 660 L 1320 660 1320 675 L 1320 690 1350 690 L 1380 690 1380 645 L 1380 600 1395 600 L 1410 600 1410 570 L 1410 540 1395 540 L 1380 540 1380 570" stroke="none" fill="#3d7b56" fill-rule="evenodd"/><path d="M 1350 570 L 1350 600 1335 600 L 1320 600 1320 630 L 1320 660 1305 660 L 1290 660 1290 675 L 1290 690 1305 690 L 1320 690 1320 675 L 1320 660 1335 660 L 1350 660 1350 630 L 1350 600 1365 600 L 1380 600 1380 570 L 1380 540 1365 540 L 1350 540 1350 570" stroke="none" fill="#a0cd3c" fill-rule="evenodd"/><path d="M 1320 570 L 1320 600 1335 600 L 1350 600 1350 570 L 1350 540 1335 540 L 1320 540 1320 570 M 1290 645 L 1290 660 1305 660 L 1320 660 1320 645 L 1320 630 1305 630 L 1290 630 1290 645 M 509.397 946 C 509.397 953.975, 509.553 957.237, 509.743 953.250 C 509.932 949.263, 509.932 942.737, 509.743 938.750 C 509.553 934.763, 509.397 938.025, 509.397 946 M 689.402 1005 C 689.402 1013.525, 689.556 1017.013, 689.743 1012.750 C 689.931 1008.487, 689.931 1001.513, 689.743 997.250 C 689.556 992.987, 689.402 996.475, 689.402 1005" stroke="none" fill="#dbf9a1" fill-rule="evenodd"/><path d="M 1320 525 L 1320 540 1304.990 540 L 1289.979 540 1290.240 584.750 L 1290.500 629.500 1305.250 629.777 L 1320 630.053 1320 585.027 L 1320 540 1365 540 L 1410 540 1410 570 L 1410 600 1395 600 L 1380 600 1380 645.027 L 1380 690.053 1394.750 689.777 L 1409.500 689.500 1409.760 644.750 L 1410.021 600 1425.010 600 L 1440 600 1440 570 L 1440 540 1425 540 L 1410 540 1410 525 L 1410 510 1365 510 L 1320 510 1320 525 M 1260 660 L 1260 690 1244.985 690 L 1229.970 690 1230.235 719.750 L 1230.500 749.500 1245.250 749.777 L 1260 750.053 1260 720.053 L 1260 690.053 1274.750 689.777 L 1289.500 689.500 1289.765 659.750 L 1290.030 630 1275.015 630 L 1260 630 1260 660 M 1410 750 L 1410 810 1425 810 L 1440 810 1440 885 L 1440 960 1425 960 L 1410 960 1410 990 L 1410 1020 1395 1020 L 1380 1020 1380 1050 L 1380 1080 1365 1080 L 1350 1080 1350 1095 L 1350 1110 1335 1110 L 1320 1110 1320 1125 L 1320 1140 1305 1140 L 1290 1140 1290 1155 L 1290 1170 1275 1170 L 1260 1170 1260 1185 L 1260 1200 1230 1200 L 1200 1200 1200 1215 L 1200 1230 1170 1230 L 1140 1230 1140 1245 L 1140 1260 1110 1260 L 1080 1260 1080 1275 L 1080 1290 885 1290 L 690 1290 690 1305 L 690 1320 885 1320 L 1080 1320 1080 1305 L 1080 1290 1110 1290 L 1140 1290 1140 1275 L 1140 1260 1170 1260 L 1200 1260 1200 1245 L 1200 1230 1230 1230 L 1260 1230 1260 1215 L 1260 1200 1275 1200 L 1290 1200 1290 1185 L 1290 1170 1305 1170 L 1320 1170 1320 1155 L 1320 1140 1335 1140 L 1350 1140 1350 1125 L 1350 1110 1365 1110 L 1380 1110 1380 1095 L 1380 1080 1395 1080 L 1410 1080 1410 1050 L 1410 1020 1425 1020 L 1440 1020 1440 990 L 1440 960 1455 960 L 1470 960 1470 885 L 1470 810 1455 810 L 1440 810 1440 750 L 1440 690 1425 690 L 1410 690 1410 750 M 1200 764.973 L 1200 780 1184.973 780 L 1169.947 780 1170.223 794.750 L 1170.500 809.500 1185.250 809.777 L 1200 810.053 1200 795.027 L 1200 780 1215.027 780 L 1230.053 780 1229.777 765.250 L 1229.500 750.500 1214.750 750.223 L 1200 749.947 1200 764.973 M 1140 824.973 L 1140 840 1124.973 840 L 1109.947 840 1110.223 854.750 L 1110.500 869.500 1125.250 869.777 L 1140 870.053 1140 855.027 L 1140 840 1155.027 840 L 1170.053 840 1169.777 825.250 L 1169.500 810.500 1154.750 810.223 L 1140 809.947 1140 824.973 M 1050 885 L 1050 900 1020 900 L 990 900 990 915 L 990 930 960 930 L 930 930 930 945 L 930 960 900 960 L 870 960 870 975 L 870 990 780 990 L 690 990 690 975 L 690 960 645 960 L 600 960 600 945 L 600 930 555 930 L 510 930 510 945 L 510 960 555 960 L 600 960 600 975 L 600 990 645 990 L 690 990 690 1005 L 690 1020 780 1020 L 870 1020 870 1005.015 L 870 990.030 899.750 989.765 L 929.500 989.500 929.777 974.750 L 930.053 960 960.027 960 L 990 960 990 945.015 L 990 930.030 1019.750 929.765 L 1049.500 929.500 1049.777 914.750 L 1050.053 900 1080.027 900 L 1110 900 1110 885 L 1110 870 1080 870 L 1050 870 1050 885 M 420 975 L 420 1050 435 1050 L 450 1050 450 1080 L 450 1110 465 1110 L 480 1110 480 1125 L 480 1140 495 1140 L 510 1140 510 1125 L 510 1110 495 1110 L 480 1110 480 1080 L 480 1050 465 1050 L 450 1050 450 989.750 L 449.999 929.500 479.750 929.500 L 509.500 929.500 509.777 914.750 L 510.053 900 465.027 900 L 420 900 420 975 M 510 1185 L 510 1200 525 1200 L 540 1200 540 1215 L 540 1230 555 1230 L 570 1230 570 1245 L 570 1260 600 1260 L 630 1260 630 1275.015 L 630 1290.030 659.750 1289.765 L 689.500 1289.500 689.777 1274.750 L 690.053 1260 660.027 1260 L 630 1260 630 1245 L 630 1230 600 1230 L 570 1230 570 1215 L 570 1200 555 1200 L 540 1200 540 1185 L 540 1170 525 1170 L 510 1170 510 1185" stroke="none" fill="#301c15" fill-rule="evenodd"/><path d="M 0 960.001 L 0 1920.001 960.250 1919.751 L 1920.500 1919.500 1920.751 959.750 L 1921.001 -0 960.501 -0 L 0 0 0 960.001 M 0.498 960.500 C 0.498 1488.500, 0.611 1704.350, 0.750 1440.167 C 0.889 1175.985, 0.889 743.985, 0.750 480.167 C 0.611 216.350, 0.498 432.500, 0.498 960.500 M 1320.596 509.738 C 1320.268 510.065, 1320 517.029, 1320 525.212 L 1320 540.090 1304.750 539.945 L 1289.500 539.801 1289.313 584.437 L 1289.126 629.074 1274.563 629.177 L 1260 629.280 1260 659.140 C 1260 682.348, 1259.722 689.005, 1258.750 689.025 C 1258.063 689.038, 1251.200 689.151, 1243.500 689.275 L 1229.500 689.500 1229.500 719.250 C 1229.500 744.990, 1229.298 749.013, 1228 749.088 C 1227.175 749.136, 1220.650 749.248, 1213.500 749.338 L 1200.500 749.500 1200.224 764.750 L 1199.948 780 1184.528 780 L 1169.109 780 1169.118 794.555 L 1169.126 809.111 1154.563 809.147 L 1140 809.184 1140 824.566 L 1140 839.948 1124.750 840.224 L 1109.500 840.500 1109.500 854.751 C 1109.500 863.567, 1109.119 869.012, 1108.500 869.028 C 1107.950 869.042, 1094.450 869.154, 1078.500 869.277 L 1049.500 869.500 1049.267 883.500 C 1049.139 891.200, 1049.026 898.063, 1049.017 898.750 C 1049.004 899.722, 1042.344 900, 1019.098 900 L 989.196 900 989.147 914.537 L 989.098 929.075 959.299 929.287 C 933.641 929.470, 929.481 929.708, 929.365 931 C 929.291 931.825, 929.179 938.681, 929.115 946.235 L 929 959.970 899.250 960.235 L 869.500 960.500 869.500 974.751 C 869.500 986.747, 869.263 989.003, 868 989.011 C 867.175 989.016, 826.931 989.040, 778.569 989.065 L 690.637 989.110 690.569 974.805 L 690.500 960.500 645.276 960.240 L 600.052 959.980 599.776 944.740 L 599.500 929.500 584.500 929.333 C 576.250 929.241, 556.225 929.129, 540 929.083 L 510.500 928.999 510.500 914.499 C 510.500 906.523, 510.163 899.999, 509.750 899.999 C 509.337 900, 488.975 900, 464.500 900 L 420 900 420 975.360 L 420 1050.720 434.526 1050.823 L 449.053 1050.926 449.276 1080.713 L 449.500 1110.500 464 1110.737 C 471.975 1110.868, 478.837 1110.981, 479.250 1110.987 C 479.663 1110.994, 480 1117.513, 480 1125.473 L 480 1139.947 494.750 1140.223 L 509.500 1140.500 509.500 1170 L 509.500 1199.500 524.750 1199.776 L 540 1200.052 540 1215.386 L 540 1230.720 554.462 1230.822 L 568.924 1230.925 569.390 1249.212 C 569.646 1259.271, 569.888 1272.563, 569.928 1278.750 L 570 1290 585 1290 L 600 1290 600 1305 L 600 1320 615 1320 L 630 1320 630 1335 L 630 1350 675 1350 L 720 1350 720 1365 L 720 1380 795 1380 L 870 1380 870 1395 L 870 1410 1140 1410 L 1410 1410 1410 1395 L 1410 1380 1485 1380 L 1560 1380 1560 1365 L 1560 1350 1605 1350 L 1650 1350 1650 1335 L 1650 1320 1665 1320 L 1680 1320 1680 1305 L 1680 1290 1695 1290 L 1710 1290 1710 1275 L 1710 1260 1695 1260 L 1680 1260 1680 1245 L 1680 1230 1665 1230 L 1650 1230 1650 1215 L 1650 1200 1605 1200 L 1560 1200 1560 1185 L 1560 1170 1485 1170 L 1410 1170 1410 1155.015 L 1410 1140.030 1380.392 1139.765 L 1350.783 1139.500 1350.847 1125.213 L 1350.911 1110.926 1365.455 1110.823 L 1380 1110.720 1380 1095.386 L 1380 1080.052 1395.250 1079.776 L 1410.500 1079.500 1410.691 1050 C 1410.820 1030.121, 1411.228 1020.459, 1411.941 1020.375 C 1412.524 1020.306, 1419.075 1020.194, 1426.500 1020.125 L 1440 1020 1440 990.026 L 1440 960.052 1455.250 959.776 L 1470.500 959.500 1470.500 884.534 L 1470.500 809.569 1467 809.392 C 1465.075 809.295, 1458.216 809.167, 1451.758 809.108 L 1440.016 809 1439.758 749.250 L 1439.500 689.500 1425.242 689.344 L 1410.984 689.188 1410.943 647.844 C 1410.920 625.105, 1410.924 605.038, 1410.951 603.250 L 1411 600 1425.500 600 L 1440 600 1440 570.027 L 1440 540.053 1425.355 539.777 L 1410.710 539.500 1410.605 524.500 L 1410.500 509.500 1365.846 509.321 C 1341.286 509.222, 1320.923 509.410, 1320.596 509.738" stroke="none" fill="#60cdf4" fill-rule="evenodd"/></svg>